<mxfile host="Electron" agent="Mozilla/5.0 (Windows NT 10.0; Win64; x64) AppleWebKit/537.36 (KHTML, like Gecko) draw.io/26.1.1 Chrome/132.0.6834.210 Electron/34.3.3 Safari/537.36" version="26.1.1">
  <diagram name="ログインとログアウト" id="du5p1T-vPCowGn1n6Y0h">
    <mxGraphModel dx="1434" dy="836" grid="1" gridSize="10" guides="1" tooltips="1" connect="1" arrows="1" fold="1" page="1" pageScale="1" pageWidth="827" pageHeight="1169" math="0" shadow="0">
      <root>
        <mxCell id="0" />
        <mxCell id="1" parent="0" />
        <mxCell id="2unVRzMVsG34WW1BglRY-1" style="edgeStyle=orthogonalEdgeStyle;rounded=0;orthogonalLoop=1;jettySize=auto;html=1;exitX=0.5;exitY=1;exitDx=0;exitDy=0;entryX=0.5;entryY=0;entryDx=0;entryDy=0;" parent="1" source="2unVRzMVsG34WW1BglRY-2" target="2unVRzMVsG34WW1BglRY-4" edge="1">
          <mxGeometry relative="1" as="geometry" />
        </mxCell>
        <mxCell id="2unVRzMVsG34WW1BglRY-2" value="IDとパスワードを入力" style="rounded=0;whiteSpace=wrap;html=1;" parent="1" vertex="1">
          <mxGeometry x="160" y="190" width="150" height="40" as="geometry" />
        </mxCell>
        <mxCell id="2unVRzMVsG34WW1BglRY-3" style="edgeStyle=orthogonalEdgeStyle;rounded=0;orthogonalLoop=1;jettySize=auto;html=1;exitX=0.5;exitY=1;exitDx=0;exitDy=0;entryX=0.5;entryY=0;entryDx=0;entryDy=0;" parent="1" source="2unVRzMVsG34WW1BglRY-4" target="2unVRzMVsG34WW1BglRY-7" edge="1">
          <mxGeometry relative="1" as="geometry" />
        </mxCell>
        <mxCell id="2unVRzMVsG34WW1BglRY-4" value="ログインボタン押下" style="rounded=0;whiteSpace=wrap;html=1;" parent="1" vertex="1">
          <mxGeometry x="160" y="250" width="150" height="40" as="geometry" />
        </mxCell>
        <mxCell id="2unVRzMVsG34WW1BglRY-5" style="edgeStyle=orthogonalEdgeStyle;rounded=0;orthogonalLoop=1;jettySize=auto;html=1;exitX=1;exitY=0.5;exitDx=0;exitDy=0;entryX=0.5;entryY=1;entryDx=0;entryDy=0;" parent="1" source="2unVRzMVsG34WW1BglRY-7" target="2unVRzMVsG34WW1BglRY-9" edge="1">
          <mxGeometry relative="1" as="geometry" />
        </mxCell>
        <mxCell id="2unVRzMVsG34WW1BglRY-6" style="edgeStyle=orthogonalEdgeStyle;rounded=0;orthogonalLoop=1;jettySize=auto;html=1;exitX=0.5;exitY=1;exitDx=0;exitDy=0;entryX=0.5;entryY=0;entryDx=0;entryDy=0;" parent="1" source="2unVRzMVsG34WW1BglRY-7" target="2unVRzMVsG34WW1BglRY-13" edge="1">
          <mxGeometry relative="1" as="geometry" />
        </mxCell>
        <mxCell id="2unVRzMVsG34WW1BglRY-7" value="バリデーション" style="rhombus;whiteSpace=wrap;html=1;fillColor=#d5e8d4;strokeColor=#82b366;" parent="1" vertex="1">
          <mxGeometry x="170" y="320" width="130" height="60" as="geometry" />
        </mxCell>
        <mxCell id="2unVRzMVsG34WW1BglRY-8" style="edgeStyle=orthogonalEdgeStyle;rounded=0;orthogonalLoop=1;jettySize=auto;html=1;exitX=0;exitY=0.5;exitDx=0;exitDy=0;entryX=1;entryY=0.5;entryDx=0;entryDy=0;" parent="1" source="2unVRzMVsG34WW1BglRY-9" target="2unVRzMVsG34WW1BglRY-2" edge="1">
          <mxGeometry relative="1" as="geometry" />
        </mxCell>
        <mxCell id="2unVRzMVsG34WW1BglRY-9" value="&lt;b&gt;エラーメッセージ&lt;/b&gt;&lt;br&gt;ID・パスワードの入力欄を表示" style="rounded=0;whiteSpace=wrap;html=1;fillColor=#dae8fc;strokeColor=#6c8ebf;" parent="1" vertex="1">
          <mxGeometry x="370" y="185" width="150" height="50" as="geometry" />
        </mxCell>
        <mxCell id="2unVRzMVsG34WW1BglRY-10" style="edgeStyle=orthogonalEdgeStyle;rounded=0;orthogonalLoop=1;jettySize=auto;html=1;exitX=0.5;exitY=1;exitDx=0;exitDy=0;entryX=0.5;entryY=0;entryDx=0;entryDy=0;" parent="1" source="2unVRzMVsG34WW1BglRY-11" target="2unVRzMVsG34WW1BglRY-2" edge="1">
          <mxGeometry relative="1" as="geometry" />
        </mxCell>
        <mxCell id="2unVRzMVsG34WW1BglRY-11" value="ID・パスワードの入力欄&lt;br&gt;を表示" style="rounded=1;whiteSpace=wrap;html=1;fillColor=#dae8fc;strokeColor=#6c8ebf;arcSize=48;" parent="1" vertex="1">
          <mxGeometry x="160" y="120" width="150" height="40" as="geometry" />
        </mxCell>
        <mxCell id="2unVRzMVsG34WW1BglRY-12" style="edgeStyle=orthogonalEdgeStyle;rounded=0;orthogonalLoop=1;jettySize=auto;html=1;exitX=0.5;exitY=1;exitDx=0;exitDy=0;entryX=0.5;entryY=0;entryDx=0;entryDy=0;" parent="1" source="2unVRzMVsG34WW1BglRY-13" target="2unVRzMVsG34WW1BglRY-16" edge="1">
          <mxGeometry relative="1" as="geometry" />
        </mxCell>
        <mxCell id="2unVRzMVsG34WW1BglRY-13" value="DB内のID・パスワードと照合" style="rounded=0;whiteSpace=wrap;html=1;fillColor=#d5e8d4;strokeColor=#82b366;" parent="1" vertex="1">
          <mxGeometry x="160" y="420" width="150" height="40" as="geometry" />
        </mxCell>
        <mxCell id="2unVRzMVsG34WW1BglRY-14" style="edgeStyle=orthogonalEdgeStyle;rounded=0;orthogonalLoop=1;jettySize=auto;html=1;exitX=1;exitY=0.5;exitDx=0;exitDy=0;entryX=0.75;entryY=1;entryDx=0;entryDy=0;" parent="1" source="2unVRzMVsG34WW1BglRY-16" target="2unVRzMVsG34WW1BglRY-9" edge="1">
          <mxGeometry relative="1" as="geometry" />
        </mxCell>
        <mxCell id="2unVRzMVsG34WW1BglRY-15" style="edgeStyle=orthogonalEdgeStyle;rounded=0;orthogonalLoop=1;jettySize=auto;html=1;entryX=0.5;entryY=0;entryDx=0;entryDy=0;" parent="1" source="2unVRzMVsG34WW1BglRY-16" target="2unVRzMVsG34WW1BglRY-20" edge="1">
          <mxGeometry relative="1" as="geometry" />
        </mxCell>
        <mxCell id="2unVRzMVsG34WW1BglRY-16" value="マッチする？" style="rhombus;whiteSpace=wrap;html=1;fillColor=#d5e8d4;strokeColor=#82b366;" parent="1" vertex="1">
          <mxGeometry x="170" y="500" width="130" height="60" as="geometry" />
        </mxCell>
        <mxCell id="2unVRzMVsG34WW1BglRY-17" value="入力不備" style="text;html=1;align=left;verticalAlign=middle;resizable=0;points=[];autosize=1;" parent="1" vertex="1">
          <mxGeometry x="300" y="332" width="60" height="20" as="geometry" />
        </mxCell>
        <mxCell id="2unVRzMVsG34WW1BglRY-18" value="マッチするものがない" style="text;html=1;align=left;verticalAlign=middle;resizable=0;points=[];autosize=1;" parent="1" vertex="1">
          <mxGeometry x="300" y="510" width="140" height="20" as="geometry" />
        </mxCell>
        <mxCell id="2unVRzMVsG34WW1BglRY-19" style="edgeStyle=orthogonalEdgeStyle;rounded=0;orthogonalLoop=1;jettySize=auto;html=1;exitX=0.5;exitY=1;exitDx=0;exitDy=0;" parent="1" source="2unVRzMVsG34WW1BglRY-20" target="2unVRzMVsG34WW1BglRY-21" edge="1">
          <mxGeometry relative="1" as="geometry" />
        </mxCell>
        <mxCell id="2unVRzMVsG34WW1BglRY-20" value="セッションにログイン認証情報を格納" style="rounded=0;whiteSpace=wrap;html=1;fillColor=#d5e8d4;strokeColor=#82b366;" parent="1" vertex="1">
          <mxGeometry x="160" y="590" width="150" height="40" as="geometry" />
        </mxCell>
        <mxCell id="2unVRzMVsG34WW1BglRY-21" value="リダイレクト" style="rounded=1;whiteSpace=wrap;html=1;fillColor=#d5e8d4;strokeColor=#82b366;arcSize=50;" parent="1" vertex="1">
          <mxGeometry x="160" y="660" width="150" height="40" as="geometry" />
        </mxCell>
        <mxCell id="2unVRzMVsG34WW1BglRY-22" value="OK" style="text;html=1;align=left;verticalAlign=middle;resizable=0;points=[];autosize=1;" parent="1" vertex="1">
          <mxGeometry x="240" y="380" width="30" height="20" as="geometry" />
        </mxCell>
        <mxCell id="2unVRzMVsG34WW1BglRY-23" value="OK" style="text;html=1;align=left;verticalAlign=middle;resizable=0;points=[];autosize=1;" parent="1" vertex="1">
          <mxGeometry x="240" y="560" width="30" height="20" as="geometry" />
        </mxCell>
        <mxCell id="2unVRzMVsG34WW1BglRY-24" value="ユーザー操作" style="rounded=0;whiteSpace=wrap;html=1;align=center;" parent="1" vertex="1">
          <mxGeometry x="570" y="130" width="120" height="28" as="geometry" />
        </mxCell>
        <mxCell id="2unVRzMVsG34WW1BglRY-25" value="ビュー" style="rounded=0;whiteSpace=wrap;html=1;align=center;fillColor=#dae8fc;strokeColor=#6c8ebf;" parent="1" vertex="1">
          <mxGeometry x="570" y="180" width="120" height="28" as="geometry" />
        </mxCell>
        <mxCell id="2unVRzMVsG34WW1BglRY-26" value="コントローラー" style="rounded=0;whiteSpace=wrap;html=1;align=center;fillColor=#d5e8d4;strokeColor=#82b366;" parent="1" vertex="1">
          <mxGeometry x="570" y="230" width="120" height="28" as="geometry" />
        </mxCell>
        <mxCell id="2unVRzMVsG34WW1BglRY-27" value="凡例" style="text;html=1;align=center;verticalAlign=middle;resizable=0;points=[];autosize=1;fontStyle=1" parent="1" vertex="1">
          <mxGeometry x="570" y="100" width="40" height="20" as="geometry" />
        </mxCell>
        <mxCell id="2unVRzMVsG34WW1BglRY-28" value="ログイン時のフロー" style="text;html=1;align=left;verticalAlign=middle;resizable=0;points=[];autosize=1;fontSize=19;fontStyle=1" parent="1" vertex="1">
          <mxGeometry x="160" y="50" width="190" height="30" as="geometry" />
        </mxCell>
        <mxCell id="2unVRzMVsG34WW1BglRY-29" style="edgeStyle=orthogonalEdgeStyle;rounded=0;orthogonalLoop=1;jettySize=auto;html=1;exitX=0.5;exitY=1;exitDx=0;exitDy=0;entryX=0.5;entryY=0;entryDx=0;entryDy=0;" parent="1" source="2unVRzMVsG34WW1BglRY-30" target="2unVRzMVsG34WW1BglRY-31" edge="1">
          <mxGeometry relative="1" as="geometry" />
        </mxCell>
        <mxCell id="2unVRzMVsG34WW1BglRY-30" value="セッションから&lt;br&gt;認証情報を破棄" style="rounded=1;whiteSpace=wrap;html=1;fillColor=#d5e8d4;strokeColor=#82b366;arcSize=50;" parent="1" vertex="1">
          <mxGeometry x="170" y="960" width="150" height="40" as="geometry" />
        </mxCell>
        <mxCell id="2unVRzMVsG34WW1BglRY-31" value="ログイン画面を表示" style="rounded=1;whiteSpace=wrap;html=1;fillColor=#dae8fc;strokeColor=#6c8ebf;arcSize=48;" parent="1" vertex="1">
          <mxGeometry x="170" y="1070" width="150" height="40" as="geometry" />
        </mxCell>
        <mxCell id="2unVRzMVsG34WW1BglRY-32" value="ログアウト時のフロー" style="text;html=1;align=left;verticalAlign=middle;resizable=0;points=[];autosize=1;fontSize=19;fontStyle=1" parent="1" vertex="1">
          <mxGeometry x="160" y="805" width="210" height="40" as="geometry" />
        </mxCell>
        <mxCell id="2unVRzMVsG34WW1BglRY-33" value="" style="endArrow=none;html=1;fontSize=19;" parent="1" edge="1">
          <mxGeometry width="50" height="50" relative="1" as="geometry">
            <mxPoint x="90" y="760" as="sourcePoint" />
            <mxPoint x="720" y="760" as="targetPoint" />
          </mxGeometry>
        </mxCell>
        <mxCell id="1YCrizekLe8orOIWjRSa-2" value="" style="edgeStyle=orthogonalEdgeStyle;rounded=0;orthogonalLoop=1;jettySize=auto;html=1;" edge="1" parent="1" source="1YCrizekLe8orOIWjRSa-1" target="2unVRzMVsG34WW1BglRY-30">
          <mxGeometry relative="1" as="geometry" />
        </mxCell>
        <mxCell id="1YCrizekLe8orOIWjRSa-1" value="ログアウト押下" style="rounded=1;whiteSpace=wrap;html=1;arcSize=50;" vertex="1" parent="1">
          <mxGeometry x="170" y="860" width="150" height="40" as="geometry" />
        </mxCell>
      </root>
    </mxGraphModel>
  </diagram>
</mxfile>
